<?xml version="1.0" encoding="UTF-8" standalone="no"?>
<svg width="555px" height="426px" viewBox="0 0 555 426" version="1.1" xmlns="http://www.w3.org/2000/svg" xmlns:xlink="http://www.w3.org/1999/xlink">
    <!-- Generator: Sketch 3.8.2 (29753) - http://www.bohemiancoding.com/sketch -->
    <title>Slice 1</title>
    <desc>Created with Sketch.</desc>
    <defs></defs>
    <g id="Page-1" stroke="none" stroke-width="1" fill="none" fill-rule="evenodd">
        <g id="77" transform="translate(-121.000000, 0.000000)">
            <path d="M400.301935,416.568609 L428.470369,416.568609 L428.470369,413.228257 C419.144049,414.779135 409.775624,415.958083 400.301935,416.568609" id="Fill-24" fill="#00A3DB"></path>
            <path d="M408.779132,147.291295 C431.123002,108.652681 461.172138,77.2842455 495.817768,53.8526559 L495.817768,13.7193044 L297.536977,13.7193044 L297.536977,137.045676 C303.186102,143.887784 308.533473,151.087788 313.101896,159.038668 C336.365064,199.277283 340.15454,245.5159 327.424709,286.673814 L341.712435,300.96154 L341.712435,416.568609 L400.301935,416.568609 C359.396654,333.922958 359.256303,233.038702 408.779132,147.291295" id="Fill-25" fill="#00A3DB"></path>
            <path d="M495.817768,393.452809 L495.817768,416.568609 L626.631862,416.568609 L626.631862,278.954512 C594.870444,331.754536 548.596739,370.631746 495.817768,393.452809" id="Fill-26" fill="#00A3DB"></path>
            <path d="M193.915877,238.084318 L130.94041,300.96154 L130.94041,416.568609 L297.536977,416.568609 L297.536977,307.922946 C256.203625,299.95803 218.442204,275.663282 193.915877,238.084318" id="Fill-27" fill="#00A3DB"></path>
            <path d="M428.470369,413.228257 L428.470369,416.568609 L495.817768,416.568609 L495.817768,393.452809 C474.273899,402.779129 451.642309,409.396676 428.470369,413.228257" id="Fill-28" fill="#286AA6"></path>
            <path d="M327.424709,286.673814 C324.870322,294.877326 321.761549,302.870312 317.929968,310.589614 C311.05979,310.154526 304.259787,309.22821 297.536977,307.922946 L297.536977,416.568609 L341.712435,416.568609 L341.712435,300.96154 L327.424709,286.673814" id="Fill-29" fill="#005385"></path>
            <path d="M637.803797,5.36842348 C587.249388,8.55438983 538.112524,25.2772044 495.817768,53.8526559 L495.817768,158.182528 L626.631862,158.182528 L626.631862,278.954512 C627.516073,277.50188 628.463442,276.112406 629.3266,274.645738 C679.017851,188.743945 678.716096,87.8596888 637.803797,5.36842348" id="Fill-30" fill="#84BF41"></path>
            <path d="M428.470369,158.182528 L495.817768,158.182528 L495.817768,53.8526559 C461.172138,77.2842455 431.123002,108.652681 408.779132,147.291295 C359.256303,233.038702 359.396654,333.922958 400.301935,416.568609 C409.775624,415.958083 419.144049,414.779135 428.470369,413.228257 L428.470369,158.182528" id="Fill-31" fill="#00778E"></path>
            <path d="M495.817768,158.182528 L495.817768,393.452809 C548.596739,370.631746 594.870444,331.754536 626.631862,278.954512 L626.631862,158.182528 L495.817768,158.182528" id="Fill-32" fill="#00778E"></path>
            <path d="M428.470369,413.228257 C451.642309,409.396676 474.273899,402.779129 495.817768,393.452809 L495.817768,158.182528 L428.470369,158.182528 L428.470369,413.228257" id="Fill-33" fill="#1D4F5E"></path>
            <path d="M297.536977,256.800116 L297.536977,137.045676 C268.793104,102.231625 227.473787,81.8035457 184.168504,79.087755 C161.080775,125.642162 161.080775,182.37903 188.968506,230.638701 C190.477279,233.256246 192.273771,235.579054 193.915877,238.084318 L236.393089,195.684299 L297.536977,256.800116" id="Fill-34" fill="#84BF41"></path>
            <path d="M327.424709,286.673814 C340.15454,245.5159 336.365064,199.277283 313.101896,159.038668 C308.533473,151.087788 303.186102,143.887784 297.536977,137.045676 L297.536977,256.800116 L327.424709,286.673814" id="Fill-35" fill="#00778E"></path>
            <path d="M297.536977,307.922946 L297.536977,256.800116 L236.393089,195.684299 L193.915877,238.084318 C218.442204,275.663282 256.203625,299.95803 297.536977,307.922946" id="Fill-36" fill="#00778E"></path>
            <path d="M297.536977,307.922946 C304.259787,309.22821 311.05979,310.154526 317.929968,310.589614 C321.761549,302.870312 324.870322,294.877326 327.424709,286.673814 L297.536977,256.800116 L297.536977,307.922946" id="Fill-37" fill="#1D4F5E"></path>
        </g>
    </g>
</svg>