<svg id="Layer_3" data-name="Layer 3" xmlns="http://www.w3.org/2000/svg" viewBox="0 0 229.24 52.27"><defs><style>.cls-1{fill:#fff;}</style></defs><title>logo</title><path class="cls-1" d="M261.75,261.25a17.23,17.23,0,0,1-6.55,5.11,19.64,19.64,0,0,1-8.21,1.8,22,22,0,0,1-7.6-1.3,18.26,18.26,0,0,1-6.19-3.71,17.37,17.37,0,0,1-4.14-5.8,19.65,19.65,0,0,1,0-15.12,17.4,17.4,0,0,1,4.14-5.8,18.29,18.29,0,0,1,6.19-3.71,22.06,22.06,0,0,1,7.6-1.3,17.29,17.29,0,0,1,6.8,1.3,14.18,14.18,0,0,1,5.18,3.71,16.92,16.92,0,0,1,3.28,5.8,23.39,23.39,0,0,1,1.15,7.56v3.38H238.35a8.54,8.54,0,0,0,2.81,4.93,7.94,7.94,0,0,0,5.33,1.84,8.11,8.11,0,0,0,4.5-1.19,12.09,12.09,0,0,0,3.2-3.06Zm-9.14-15.41a6.26,6.26,0,0,0-1.8-4.68,6.4,6.4,0,0,0-4.82-1.94,8.11,8.11,0,0,0-3.17.58,8,8,0,0,0-2.34,1.48,6.47,6.47,0,0,0-1.51,2.09,6.85,6.85,0,0,0-.61,2.48h14.26Z" transform="translate(-227.55 -231.44)"/><path class="cls-1" d="M289.76,242.6a7.65,7.65,0,0,0-6.26-3,5.89,5.89,0,0,0-2.66.65,2.29,2.29,0,0,0-1.3,2.23,2,2,0,0,0,1.33,1.91,17.6,17.6,0,0,0,3.38,1.08l4.39,1a16.54,16.54,0,0,1,4.39,1.69,9.85,9.85,0,0,1,3.38,3.13,9.35,9.35,0,0,1,1.33,5.29,9.8,9.8,0,0,1-1.48,5.58,11.32,11.32,0,0,1-3.78,3.53,16.26,16.26,0,0,1-5.18,1.87,30.83,30.83,0,0,1-5.69.54,27.54,27.54,0,0,1-7.42-1,13.84,13.84,0,0,1-6.34-3.71l6.55-7.27a10.86,10.86,0,0,0,3.35,2.84,9,9,0,0,0,4.28,1,10,10,0,0,0,3.38-.54,2,2,0,0,0,1.51-2,2.2,2.2,0,0,0-1.33-2.05,14.64,14.64,0,0,0-3.38-1.15l-4.39-1a18.14,18.14,0,0,1-4.39-1.62,9.18,9.18,0,0,1-3.38-3.06,9.34,9.34,0,0,1-1.33-5.29,10.67,10.67,0,0,1,1.26-5.33,11.07,11.07,0,0,1,3.31-3.67,14.34,14.34,0,0,1,4.72-2.12,21.64,21.64,0,0,1,5.4-.68,25.36,25.36,0,0,1,7,1,13,13,0,0,1,6,3.6Z" transform="translate(-227.55 -231.44)"/><path class="cls-1" d="M327,243.61a6.07,6.07,0,0,0-2.23-1.91,6.57,6.57,0,0,0-3.1-.76,8.26,8.26,0,0,0-6.37,2.45,10.19,10.19,0,0,0,0,12.82,8.25,8.25,0,0,0,6.37,2.45,5.82,5.82,0,0,0,3.1-.79A9.43,9.43,0,0,0,327,256l7.13,7.49a13.77,13.77,0,0,1-5.94,3.64,22.35,22.35,0,0,1-6.52,1,22,22,0,0,1-7.6-1.3,18.26,18.26,0,0,1-6.19-3.71,17.37,17.37,0,0,1-4.14-5.8,19.65,19.65,0,0,1,0-15.12,17.4,17.4,0,0,1,4.14-5.8,18.29,18.29,0,0,1,6.19-3.71,22.06,22.06,0,0,1,7.6-1.3,22.35,22.35,0,0,1,6.52,1,13.78,13.78,0,0,1,5.94,3.64Z" transform="translate(-227.55 -231.44)"/><path class="cls-1" d="M360,262.91h-0.14a10.16,10.16,0,0,1-4.79,4,16.47,16.47,0,0,1-6.3,1.22,16.25,16.25,0,0,1-4.72-.68,11.88,11.88,0,0,1-4-2.05,9.89,9.89,0,0,1-2.74-3.38,10.32,10.32,0,0,1-1-4.68,10.72,10.72,0,0,1,1.12-5.11,10,10,0,0,1,3-3.46,15,15,0,0,1,4.36-2.12,31.85,31.85,0,0,1,5.08-1.12,48.72,48.72,0,0,1,5.26-.43q2.63-.07,4.86-0.07a5.62,5.62,0,0,0-2.05-4.57,7.4,7.4,0,0,0-4.86-1.69,10.57,10.57,0,0,0-4.86,1.12,13.27,13.27,0,0,0-3.92,3.06l-5.76-5.9a19.82,19.82,0,0,1,7.06-4.21,25.22,25.22,0,0,1,8.35-1.4,21.84,21.84,0,0,1,7.81,1.19,11.37,11.37,0,0,1,4.9,3.49,13.46,13.46,0,0,1,2.56,5.65,37.16,37.16,0,0,1,.72,7.74V267.3H360v-4.39ZM357.3,252q-1.22,0-3.06.11a15.57,15.57,0,0,0-3.53.61,7.86,7.86,0,0,0-2.88,1.51,3.49,3.49,0,0,0-1.19,2.81,3.09,3.09,0,0,0,1.66,2.88,6.92,6.92,0,0,0,3.46.94,10.84,10.84,0,0,0,3.06-.43,9.12,9.12,0,0,0,2.63-1.22,5.92,5.92,0,0,0,1.84-2,5.81,5.81,0,0,0,.68-2.88V252H357.3Z" transform="translate(-227.55 -231.44)"/><path class="cls-1" d="M377.67,232.31h9.94v4.61h0.14a11.92,11.92,0,0,1,1.69-1.91,12.8,12.8,0,0,1,2.45-1.76,15.27,15.27,0,0,1,3.06-1.3,12.08,12.08,0,0,1,3.53-.5,18,18,0,0,1,7.06,1.33,15.75,15.75,0,0,1,5.44,3.74,16.75,16.75,0,0,1,3.49,5.72,20.87,20.87,0,0,1,1.22,7.27,22,22,0,0,1-1.12,7,19.33,19.33,0,0,1-3.17,5.94,15.48,15.48,0,0,1-5,4.14,14.21,14.21,0,0,1-6.7,1.55,18.57,18.57,0,0,1-6.3-1,10.07,10.07,0,0,1-4.79-3.56h-0.14v20.16h-10.8V232.31Zm9.94,17.5a9.05,9.05,0,0,0,2.27,6.41,9.52,9.52,0,0,0,12.75,0,10.19,10.19,0,0,0,0-12.82,9.52,9.52,0,0,0-12.75,0A9.06,9.06,0,0,0,387.61,249.8Z" transform="translate(-227.55 -231.44)"/><path class="cls-1" d="M455.14,261.25a17.22,17.22,0,0,1-6.55,5.11,19.64,19.64,0,0,1-8.21,1.8,22,22,0,0,1-7.6-1.3,18.27,18.27,0,0,1-6.19-3.71,17.37,17.37,0,0,1-4.14-5.8,19.66,19.66,0,0,1,0-15.12,17.4,17.4,0,0,1,4.14-5.8,18.3,18.3,0,0,1,6.19-3.71,22.06,22.06,0,0,1,7.6-1.3,17.29,17.29,0,0,1,6.8,1.3,14.18,14.18,0,0,1,5.18,3.71,16.93,16.93,0,0,1,3.28,5.8,23.41,23.41,0,0,1,1.15,7.56v3.38H431.74a8.55,8.55,0,0,0,2.81,4.93,7.94,7.94,0,0,0,5.33,1.84,8.11,8.11,0,0,0,4.5-1.19,12.08,12.08,0,0,0,3.2-3.06ZM446,245.84a6.26,6.26,0,0,0-1.8-4.68,6.4,6.4,0,0,0-4.82-1.94,8.11,8.11,0,0,0-3.17.58,8,8,0,0,0-2.34,1.48,6.46,6.46,0,0,0-1.51,2.09,6.84,6.84,0,0,0-.61,2.48H446Z" transform="translate(-227.55 -231.44)"/></svg>
